:FULLY-SPECIFIED
:FORCE-ALL-JOINTS-BE-3DOF
:DEGREES
388
root 9.54618 16.9214 18.3793 6.7834 1.95704 -5.01389
lfemur -37.5767 3.76426 -15.5197
ltibia 44.0209 -0 0
lfoot -11.6064 10.8933 -0.0207345
ltoes -6.5406 0 0
rfemur 0.822963 6.24802 30.5471
rtibia 16.9608 -0 0
rfoot -13.0994 4.36436 0.15066
rtoes -16.7993 0 0
lowerback -7.07176 1.43309 1.64679
upperback -0.786162 1.67434 3.08012
thorax 3.15114 0.83857 2.4886
lowerneck -19.7799 -6.2551 -12.8774
upperneck 21.6209 -8.117 12.901
head 11.4025 -3.24673 5.63234
lclavicle -5.34234e-16 -2.74323e-14 0
lhumerus -49.6724 -14.4724 97.1461
lradius 27.7813 -0 0
lwrist 9.62443 0 0
lhand -10.8256 -21.543 0.018182
lfingers 7.12502 -0 0
lthumb 15.1858 7.83944 0.00774821
rclavicle -5.34234e-16 -2.74323e-14 0
rhumerus -32.6744 15.953 -85.4107
rradius 41.1688 -0 0
rwrist -19.7334 0 0
rhand -30.1832 -24.1932 0.000737187
rfingers 7.12502 -0 0
rthumb -3.49437 -54.1429 0.000630227
389
root 9.55892 16.9134 18.5201 6.8177 1.80102 -5.13881
lfemur -37.8169 3.66477 -15.3875
ltibia 43.1822 -0 0
lfoot -11.4311 10.8605 -0.0209349
ltoes -6.85527 0 0
rfemur 1.68458 6.24096 30.6475
rtibia 16.2233 -0 0
rfoot -12.7421 4.48126 0.152118
rtoes -16.7484 0 0
lowerback -7.15268 1.52038 1.74052
upperback -0.781664 1.7792 3.10341
thorax 3.2005 0.891655 2.47386
lowerneck -19.7577 -6.25456 -12.8953
upperneck 21.6188 -8.11604 12.9129
head 11.3987 -3.24718 5.64035
lclavicle -5.34234e-16 -2.74323e-14 0
lhumerus -49.8746 -14.2314 97.0962
lradius 27.7261 -0 0
lwrist 9.47072 0 0
lhand -10.6331 -21.5169 0.0183578
lfingers 7.12502 -0 0
lthumb 15.3712 7.85101 0.0078231
rclavicle -5.34234e-16 -2.74323e-14 0
rhumerus -32.5799 15.8584 -85.4699
rradius 41.0261 -0 0
rwrist -19.5863 0 0
rhand -30.1442 -24.1879 0.000744309
rfingers 7.12502 -0 0
rthumb -3.45669 -54.1382 0.000636317
390
root 9.57166 16.9054 18.6609 6.85234 1.64508 -5.2638
lfemur -38.0573 3.56582 -15.2548
ltibia 42.3434 -0 0
lfoot -11.2558 10.8278 -0.0210351
ltoes -7.16995 0 0
rfemur 2.54616 6.2324 30.7477
rtibia 15.4859 -0 0
rfoot -12.3849 4.59817 0.152847
rtoes -16.6976 0 0
lowerback -7.23345 1.6078 1.83412
upperback -0.777124 1.88406 3.12671
thorax 3.24984 0.944753 2.45917
lowerneck -19.7354 -6.25401 -12.9133
upperneck 21.6168 -8.11507 12.9248
head 11.3949 -3.24763 5.64836
lclavicle -5.34234e-16 -2.74323e-14 0
lhumerus -50.0768 -13.9907 97.0455
lradius 27.6708 -0 0
lwrist 9.317 0 0
lhand -10.4407 -21.4907 0.0184457
lfingers 7.12502 -0 0
lthumb 15.5565 7.86259 0.00786054
rclavicle -5.34234e-16 -2.74323e-14 0
rhumerus -32.4854 15.7639 -85.5292
rradius 40.8834 -0 0
rwrist -19.4391 0 0
rhand -30.1052 -24.1827 0.000747871
rfingers 7.12502 -0 0
rthumb -3.41901 -54.1336 0.000639361
391
root 9.58439 16.8975 18.8017 6.88731 1.48921 -5.38888
lfemur -38.2979 3.46743 -15.1218
ltibia 41.5046 -0 0
lfoot -11.0805 10.795 -0.0210351
ltoes -7.48462 0 0
rfemur 3.40771 6.22235 30.8477
rtibia 14.7485 -0 0
rfoot -12.0276 4.71508 0.152847
rtoes -16.6467 0 0
lowerback -7.31408 1.69535 1.92761
upperback -0.77254 1.98892 3.15002
thorax 3.29918 0.997864 2.44452
lowerneck -19.7132 -6.25346 -12.9312
upperneck 21.6147 -8.1141 12.9368
head 11.3911 -3.24808 5.65637
lclavicle -5.34234e-16 -2.74323e-14 0
lhumerus -50.279 -13.7501 96.994
lradius 27.6156 -0 0
lwrist 9.16329 0 0
lhand -10.2482 -21.4646 0.0184457
lfingers 7.12502 -0 0
lthumb 15.7419 7.87416 0.00786054
rclavicle -5.34234e-16 -2.74323e-14 0
rhumerus -32.3908 15.6694 -85.5887
rradius 40.7406 -0 0
rwrist -19.2919 0 0
rhand -30.0662 -24.1775 0.000747871
rfingers 7.12502 -0 0
rthumb -3.38132 -54.129 0.000639361
